<?xml version="1.0" encoding="UTF-8"?>
<svg id="Layer_2" data-name="Layer 2" xmlns="http://www.w3.org/2000/svg" xmlns:xlink="http://www.w3.org/1999/xlink" viewBox="0 0 833.03 739.24">
  <defs>
    <style>
      .cls-1 {
        fill: url(#linear-gradient-12);
      }

      .cls-1, .cls-2, .cls-3, .cls-4, .cls-5, .cls-6, .cls-7, .cls-8, .cls-9, .cls-10, .cls-11, .cls-12 {
        stroke-width: 0px;
      }

      .cls-2 {
        fill: url(#linear-gradient);
      }

      .cls-3 {
        fill: url(#linear-gradient-6);
      }

      .cls-13 {
        font-family: Poppins-Regular, Poppins;
        font-size: 39px;
      }

      .cls-13, .cls-14 {
        fill: #0eaabe;
      }

      .cls-4 {
        fill: url(#linear-gradient-11);
      }

      .cls-5 {
        fill: url(#linear-gradient-5);
      }

      .cls-14 {
        font-family: Poppins-SemiBold, Poppins;
        font-size: 130px;
        font-weight: 600;
      }

      .cls-6 {
        fill: url(#linear-gradient-2);
      }

      .cls-7 {
        fill: url(#linear-gradient-7);
      }

      .cls-8 {
        fill: url(#linear-gradient-3);
      }

      .cls-9 {
        fill: url(#linear-gradient-9);
      }

      .cls-10 {
        fill: url(#linear-gradient-8);
      }

      .cls-11 {
        fill: url(#linear-gradient-10);
      }

      .cls-12 {
        fill: url(#linear-gradient-4);
      }
    </style>
    <linearGradient id="linear-gradient" x1="383.01" y1="135.43" x2="383.01" y2="239.17" gradientTransform="translate(39.65 315.67) rotate(-45) scale(.74 .71)" gradientUnits="userSpaceOnUse">
      <stop offset="0" stop-color="#005084"/>
      <stop offset=".15" stop-color="#005084" stop-opacity=".97"/>
      <stop offset=".29" stop-color="#005186" stop-opacity=".89"/>
      <stop offset=".42" stop-color="#00548a" stop-opacity=".75"/>
      <stop offset=".55" stop-color="#00578f" stop-opacity=".55"/>
      <stop offset=".68" stop-color="#005b96" stop-opacity=".29"/>
      <stop offset=".8" stop-color="#00609e" stop-opacity="0"/>
    </linearGradient>
    <linearGradient id="linear-gradient-2" x1="568.63" y1="510.55" x2="568.63" y2="614.29" gradientTransform="translate(429.36 916.93) rotate(-138.99) scale(.74 .71)" xlink:href="#linear-gradient"/>
    <linearGradient id="linear-gradient-3" x1="357.96" y1="208.05" x2="357.96" y2="311.79" gradientTransform="translate(426.98 -155.14) rotate(48.49) scale(.74 .71)" xlink:href="#linear-gradient"/>
    <linearGradient id="linear-gradient-4" x1="456.83" y1="382.77" x2="456.83" y2="486.51" gradientTransform="translate(962.62 281.4) rotate(135.75) scale(.74 .71)" xlink:href="#linear-gradient"/>
    <linearGradient id="linear-gradient-5" x1="423.87" y1="-25.04" x2="531.28" y2="-20.47" gradientTransform="translate(0 72.51) scale(1 .92)" gradientUnits="userSpaceOnUse">
      <stop offset="0" stop-color="#005084"/>
      <stop offset=".15" stop-color="#00548b" stop-opacity=".69"/>
      <stop offset=".31" stop-color="#005892" stop-opacity=".45"/>
      <stop offset=".47" stop-color="#005c97" stop-opacity=".25"/>
      <stop offset=".64" stop-color="#005e9b" stop-opacity=".11"/>
      <stop offset=".81" stop-color="#005f9d" stop-opacity=".03"/>
      <stop offset="1" stop-color="#00609e" stop-opacity="0"/>
    </linearGradient>
    <linearGradient id="linear-gradient-6" x1="379.73" y1="68.84" x2="379.73" y2="172.58" gradientUnits="userSpaceOnUse">
      <stop offset="0" stop-color="#00bed5"/>
      <stop offset=".35" stop-color="#008db8"/>
      <stop offset=".64" stop-color="#006ca5"/>
      <stop offset=".8" stop-color="#00609e"/>
    </linearGradient>
    <linearGradient id="linear-gradient-7" x1="735.72" y1="-117.43" x2="843.14" y2="-112.86" gradientTransform="translate(323.74 980.83) rotate(-90) scale(1 .92)" xlink:href="#linear-gradient-5"/>
    <linearGradient id="linear-gradient-8" x1="321.79" y1="160.75" x2="321.79" y2="264.49" gradientTransform="translate(74.02 610.92) rotate(-90)" xlink:href="#linear-gradient-6"/>
    <linearGradient id="linear-gradient-9" x1="497.33" y1="-13.76" x2="604.75" y2="-9.19" gradientTransform="translate(604.99 -235.53) rotate(90) scale(1 .92)" xlink:href="#linear-gradient-5"/>
    <linearGradient id="linear-gradient-10" x1="229.6" y1="329.38" x2="229.6" y2="433.12" gradientTransform="translate(932.33 -6.85) rotate(91.04)" xlink:href="#linear-gradient-6"/>
    <linearGradient id="linear-gradient-11" x1="714.22" y1="92.96" x2="821.63" y2="97.53" gradientTransform="translate(1119.47 538.72) rotate(-180) scale(1 .92)" xlink:href="#linear-gradient-5"/>
    <linearGradient id="linear-gradient-12" x1="371.86" y1="444.17" x2="371.86" y2="547.91" gradientTransform="translate(806.68 892.2) rotate(-177.9)" xlink:href="#linear-gradient-6"/>
  </defs>
  <g id="Layer_1-2" data-name="Layer 1">
    <g>
      <g>
        <path class="cls-2" d="m291.99,130.64c-4.41,5.58-34.06,46.52,2.57,95.7,0,0,.01.02.02.02,16.39,17.86,19.62,17.99,39.36,29.52.33.19.77.06.96-.29l.68-.63c2.66-2.49,4.84-5.45,6.42-8.72,4.43-9.19,13.49-27.92,13.74-27.77l50.5,29.74c.62.37,1.34-.4.93-.99l-57.74-83.66c-.25-.37-.8-.37-1.09-.01l-12.43,15.41c-.27.34-.77.36-1.05.04l-41.82-48.39c-.27-.32-.78-.3-1.05.04Z"/>
        <path class="cls-6" d="m298.98,385.18c5.87,4.01,48.78,30.74,95.29-9.22,0,0,.02-.01.02-.02,16.67-17.6,16.58-20.82,26.72-41.32.17-.35,0-.78-.36-.94l-.68-.63c-2.67-2.48-5.77-4.45-9.15-5.8-9.47-3.78-28.79-11.51-28.66-11.77l26.15-52.45c.32-.65-.49-1.31-1.05-.86l-79.44,63.42c-.35.28-.32.82.06,1.09l16.23,11.33c.36.25.41.75.11,1.04l-45.37,45.08c-.3.29-.24.8.12,1.04Z"/>
        <path class="cls-8" d="m545.11,128.43c-5.3-4.74-44.36-36.82-95.68-3.26,0,0-.02.01-.03.02-18.82,15.28-19.15,18.49-31.86,37.49-.21.32-.11.77.23.98l.59.71c2.33,2.81,5.15,5.16,8.32,6.94,8.9,4.98,27.05,15.16,26.89,15.4l-32.75,48.6c-.4.6.32,1.36.93.99l87.01-52.55c.38-.23.42-.77.08-1.09l-14.62-13.35c-.32-.29-.31-.79.02-1.05l50.85-38.8c.33-.25.34-.76.02-1.05Z"/>
        <path class="cls-12" d="m545.21,374.79c4.48-5.52,34.66-46.07-1.31-95.72,0,0-.01-.02-.02-.03-16.16-18.07-19.38-18.25-38.97-30.04-.33-.2-.77-.07-.97.28l-.68.62c-2.7,2.46-4.91,5.39-6.53,8.64-4.55,9.13-13.85,27.74-14.1,27.59l-50.11-30.4c-.62-.37-1.34.38-.94.98l56.64,84.41c.25.37.79.38,1.09.03l12.64-15.24c.28-.33.78-.35,1.05-.03l41.18,48.94c.27.32.77.31,1.05-.03Z"/>
        <path class="cls-5" d="m407.29,59L410.3.14s83.46-8.35,104.5,101.89"/>
        <path class="cls-3" d="m412.5,0c-9.49,1.16-76.6,12.33-88.53,97.23,0,.01,0,.03,0,.05-1.39,33.89,1.55,37.21,9.35,68.16.13.52.68.82,1.19.66l1.24.04c4.9.17,9.78-.6,14.39-2.28,12.94-4.71,39.36-14.28,39.46-13.89l19.74,79.39c.24.98,1.65.93,1.83-.06l24.64-139.91c.11-.61-.4-1.16-1.02-1.09l-26.47,2.94c-.58.06-1.08-.41-1.03-.99l6.25-89.26c.04-.58-.46-1.06-1.04-.99Z"/>
        <path class="cls-7" d="m224.94,261.68l-56.08-2.87c-1.62-.08-2.88-1.4-2.91-3.01-.26-14.85,3.99-82.92,102.03-101.63"/>
        <path class="cls-10" d="m165.95,256.36c1.16,9.49,12.33,76.6,97.23,88.53.01,0,.03,0,.05,0,33.89,1.39,37.21-1.55,68.16-9.35.52-.13.82-.68.66-1.19l.04-1.24c.17-4.9-.6-9.78-2.28-14.39-4.71-12.94-14.28-39.36-13.89-39.46l79.39-19.74c.98-.24.93-1.65-.06-1.83l-139.91-24.64c-.61-.11-1.16.4-1.09,1.02l2.94,26.47c.06.58-.41,1.08-.99,1.03l-89.26-6.25c-.58-.04-1.06.46-.99,1.04Z"/>
        <path class="cls-9" d="m608.08,245.23l56.08,2.87c1.62.08,2.88,1.4,2.91,3.01.26,14.85-3.99,82.92-102.03,101.63"/>
        <path class="cls-11" d="m667.07,250.75c-.99-9.51-10.94-76.81-95.61-90.28-.01,0-.03,0-.05,0-33.86-2-37.24.88-68.32,8.12-.52.12-.84.66-.69,1.18l-.07,1.24c-.26,4.9.43,9.79,2.02,14.43,4.47,13.03,13.57,39.62,13.17,39.71l-79.74,18.3c-.98.23-.96,1.63.03,1.83l139.44,27.17c.61.12,1.17-.38,1.11-1l-2.46-26.52c-.05-.58.43-1.07,1.01-1.02l89.13,7.87c.58.05,1.07-.44,1.01-1.02Z"/>
        <path class="cls-4" d="m421.83,443.3l-2.87,56.08c-.08,1.62-1.4,2.88-3.01,2.91-14.85.26-82.92-3.99-101.63-102.03"/>
        <path class="cls-1" d="m416.07,502.3c9.53-.81,77-9.52,92.03-93.92,0-.01,0-.03,0-.04,2.63-33.81-.19-37.25-6.85-68.46-.11-.53-.65-.85-1.17-.71l-1.24-.09c-4.89-.35-9.8.25-14.47,1.75-13.11,4.23-39.86,12.83-39.94,12.43l-16.82-80.06c-.21-.99-1.62-.99-1.83,0l-29.74,138.91c-.13.61.36,1.17.98,1.13l26.56-1.97c.58-.04,1.06.45,1,1.03l-9.51,88.97c-.06.58.42,1.08,1,1.03Z"/>
      </g>
      <text class="cls-14" transform="translate(103.28 658.69)"><tspan x="0" y="0">QUENTITY</tspan></text>
      <text class="cls-13" transform="translate(129.34 716.93)"><tspan x="0" y="0">&lt;By Quentity Not By Quantity&gt;</tspan></text>
    </g>
  </g>
</svg>